<svg xmlns="http://www.w3.org/2000/svg" viewBox="0 0 490.27 126.09"><g id="Слой_2" data-name="Слой 2"><g id="Слой_1-2" data-name="Слой 1"><path d="M15.46,110.67l12.7,14.19H23.62l-12-13.24,0,13.22H7.87l0-27.54h3.71l0,12.43L23.26,97.31h4.55Z"/><path d="M86.23,125h-4L80,118.77l-12.57,0-2.28,6.18h-4L71.68,97.4h4.18ZM73.74,101.77l-5,13.56,10,0Z"/><path d="M131.33,125.05h-4.19l-9.92-27.56h4l8,23,8.1-23h4Z"/><path d="M197.25,125.17H193.3L191,119l-12.57,0-2.28,6.17h-3.94L182.7,97.6h4.18ZM184.76,102l-5,13.57h10Z"/><path d="M248.44,111a7.45,7.45,0,0,1,3.06,2.64,6.82,6.82,0,0,1,1.11,3.86,7.34,7.34,0,0,1-2.36,5.54,8,8,0,0,1-5.75,2.23l-12,0,0-27.54,11.16,0a7.62,7.62,0,0,1,5.54,2.17,7.07,7.07,0,0,1,2.27,5.35A6.56,6.56,0,0,1,248.44,111Zm-4.77-9.84-7.46,0v8.42l7.45,0a4,4,0,0,0,3-1.22,4.14,4.14,0,0,0,1.2-3,4,4,0,0,0-1.23-2.95A3.87,3.87,0,0,0,243.67,101.14Zm-7.49,20.68h8.33a4.25,4.25,0,0,0,3.15-1.29,4.39,4.39,0,0,0,1.28-3.19,4.22,4.22,0,0,0-1.31-3.15,4.12,4.12,0,0,0-3.1-1.3h-8.34Z"/><path d="M311.22,125.38h-4L305,119.19l-12.56,0-2.28,6.17h-3.95l10.45-27.52h4.19Zm-12.48-23.2-5,13.56,10,0Z"/><path d="M363.79,118.47l0-20.54h3.7l0,27.54h-3l-14.32-20.6,0,20.58h-3.71l.05-27.54h3Z"/><path d="M418.36,111.92l14,0v1.65a11.87,11.87,0,0,1-3.76,9q-3.75,3.54-9.94,3.53a14.45,14.45,0,0,1-10.56-4.16,14.44,14.44,0,0,1,0-20.26,15,15,0,0,1,17.59-2.28,12.74,12.74,0,0,1,5,4.8l-3.2,1.85a8.86,8.86,0,0,0-3.62-3.61,10.76,10.76,0,0,0-5.3-1.37,10.82,10.82,0,0,0-7.89,18.36,11,11,0,0,0,8,3.09,10.81,10.81,0,0,0,6.72-2,8.21,8.21,0,0,0,3.22-5.29H418.35Z"/><path d="M490,125.7h-4l-2.26-6.18-12.57,0L469,125.67h-4l10.46-27.52h4.18Zm-12.49-23.19-5,13.56,10,0Z"/><polygon points="315.42 70.15 246.69 1.43 253.88 1.43 315.42 62.96 377.01 1.36 384.2 1.36 315.42 70.15"/><polygon points="315.42 50.94 265.9 1.36 273.09 1.36 315.42 43.75 357.8 1.36 364.99 1.36 315.42 50.94"/><polygon points="315.42 33.65 283.15 1.43 290.27 1.36 315.42 26.46 340.46 1.36 347.64 1.36 315.42 33.65"/><polygon points="269.92 68.97 208.8 7.26 147.68 68.97 140.49 68.97 208.8 0 277.11 68.97 269.92 68.97"/><polygon points="250.7 68.97 208.8 26.66 166.96 68.9 159.71 68.97 208.8 19.4 257.89 68.97 250.7 68.97"/><polygon points="184.14 69.02 176.99 68.97 208.8 36.86 240.6 68.97 233.41 68.97 208.8 44.12 184.14 69.02"/><polygon points="483.08 68.97 421.96 7.26 360.85 68.97 353.66 68.97 421.96 0 490.27 68.97 483.08 68.97"/><polygon points="463.87 68.97 421.96 26.66 380.13 68.9 372.87 68.97 421.96 19.4 471.06 68.97 463.87 68.97"/><polygon points="397.3 69.02 390.16 68.97 421.96 36.86 453.77 68.97 446.58 68.97 421.96 44.12 397.3 69.02"/><polygon points="127.51 69.02 58.57 35.04 127.52 1.36 139.1 1.36 70.11 35.06 138.6 68.82 127.51 69.02"/><polygon points="98.43 69.02 29.49 35.04 98.44 1.36 110.01 1.36 41.03 35.06 110.01 69.06 98.43 69.02"/><polygon points="68.94 69.02 0 35.04 68.95 1.36 80.53 1.36 11.54 35.06 80.53 69.06 68.94 69.02"/></g></g></svg>